<?xml version="1.0" encoding="UTF-8"?>
<!DOCTYPE svg PUBLIC "-//W3C//DTD SVG 1.1//EN" "http://www.w3.org/Graphics/SVG/1.1/DTD/svg11.dtd">
<!-- Creator: CorelDRAW Standard 2021 (64-Bit) -->
<svg xmlns="http://www.w3.org/2000/svg" xml:space="preserve" width="152.4mm" height="152.4mm" version="1.1" style="shape-rendering:geometricPrecision; text-rendering:geometricPrecision; image-rendering:optimizeQuality; fill-rule:evenodd; clip-rule:evenodd"
viewBox="0 0 15240 15240"
 xmlns:xlink="http://www.w3.org/1999/xlink"
 xmlns:xodm="http://www.corel.com/coreldraw/odm/2003">
 <defs>
  <style type="text/css">
   <![CDATA[
    .str0 {stroke:black;stroke-width:20;stroke-miterlimit:2.61313}
    .fil2 {fill:none}
    .fil5 {fill:#FEFEFE}
    .fil0 {fill:white}
    .fil3 {fill:#FEFEFE;fill-rule:nonzero}
    .fil6 {fill:#FEE569;fill-rule:nonzero}
    .fil4 {fill:url(#id3)}
    .fil1 {fill:url(#id4)}
   ]]>
  </style>
   <clipPath id="id0">
    <path d="M-0 0l15240 0 0 15240 -15240 0 0 -15240z"/>
   </clipPath>
    <clipPath id="id1">
     <path d="M-0 0l15240 0 0 15240 -15240 0 0 -15240z"/>
    </clipPath>
    <clipPath id="id2">
     <path d="M-0 0l15240 0 0 15240 -15240 0 0 -15240z"/>
    </clipPath>
  <radialGradient id="id3" gradientUnits="userSpaceOnUse" gradientTransform="matrix(0.999914 -0 -0 0.999916 1 1)" cx="7620.28" cy="6652.04" r="1840.98" fx="7620.28" fy="6652.04">
   <stop offset="0" style="stop-opacity:1; stop-color:#1D9CD7"/>
   <stop offset="0.780392" style="stop-opacity:1; stop-color:#0A8CC9"/>
   <stop offset="1" style="stop-opacity:1; stop-color:#0979AE"/>
  </radialGradient>
  <radialGradient id="id4" gradientUnits="userSpaceOnUse" gradientTransform="matrix(-0.925617 -1.46184 1.37975 -1.45272 -11869 7379)" cx="-2808.76" cy="4682.62" r="12638.42" fx="-2808.76" fy="4682.62">
   <stop offset="0" style="stop-opacity:1; stop-color:#00A0E3"/>
   <stop offset="0.25098" style="stop-opacity:1; stop-color:#0083A1"/>
   <stop offset="0.521569" style="stop-opacity:1; stop-color:#1A474C"/>
   <stop offset="1" style="stop-opacity:1; stop-color:#182630"/>
  </radialGradient>
 </defs>
 <g id="Layer_x0020_1">
  <metadata id="CorelCorpID_0Corel-Layer"/>
  <g>
  </g>
  <g style="clip-path:url(#id0)">
   <g>
    <polygon class="fil0" points="-2345.25,-6063.69 15334.21,-6063.69 15334.21,18940.11 -2345.25,18940.11 "/>
   </g>
   <g style="clip-path:url(#id1)">
    <g id="_2291945684704">
     <rect class="fil1 str0" x="-11661.17" y="-6098.3" width="35409.64" height="25071.89"/>
    </g>
   </g>
   <g style="clip-path:url(#id2)">
    <polygon class="fil2" points="-2345.25,-6063.69 15334.21,-6063.69 15334.21,18940.11 -2345.25,18940.11 "/>
   </g>
  </g>
  <polygon class="fil2" points="-0,0 15240,0 15240,15240 -0,15240 "/>
  <g>
   <path class="fil3" d="M7620.26 3510.07c866.61,0 1651.14,351.82 2218.98,920.62 567.58,568.54 918.64,1353.92 918.64,2221.35 0,867.41 -351.04,1652.79 -918.64,2221.34 -567.84,568.8 -1352.35,920.62 -2218.98,920.62 -866.59,0 -1651.12,-351.82 -2218.96,-920.62 -567.56,-568.55 -918.62,-1353.95 -918.62,-2221.34 0,-867.43 351.06,-1652.81 918.62,-2221.34 567.84,-568.8 1352.35,-920.63 2218.96,-920.63z"/>
   <path class="fil4" d="M9797.82 4654.08l-4196.83 4156.16c528.1,495.75 1238.29,799.42 2019.3,799.42 815.29,0 1553.51,-330.93 2087.91,-865.9 534.64,-535.27 865.36,-1274.84 865.36,-2091.72 0,-770.25 -294.06,-1471.64 -775.74,-1997.96l0 0.01 0 -0.01zm-3945.65 1674.75l0 -878.96 0 -885.65 740.86 0c186.1,0 321.55,16.02 405.89,47.67 84.73,31.65 152.04,87.91 202.74,168.82 50.67,81.32 76.22,173.75 76.22,278.08 0,132.67 -38.13,241.94 -114.72,328.17 -76.64,86.27 -191,140.51 -343.49,163.09 75.79,44.76 138.28,94.04 187.35,147.84 49.47,53.85 116,149.52 199.49,286.74l212.49 344.2 -420.51 0 -252.22 -385.28c-90.42,-136.78 -152.47,-223.06 -186.1,-258.79 -33.27,-35.34 -68.55,-59.95 -105.84,-73.09 -37.76,-13.18 -96.96,-19.73 -178.01,-19.73l-71.38 0 0 736.91 -352.79 0 0.02 -0.02zm352.79 -1017.81l260.31 0c168.68,0 273.7,-7.43 315.9,-21.77 41.77,-14.4 75,-39.46 98.52,-74.79 23.94,-35.31 35.71,-79.67 35.71,-132.67 0,-59.54 -15.87,-107.2 -47.09,-144.15 -31.22,-36.59 -75.43,-59.58 -132.18,-69.02 -28.79,-4.11 -114.37,-6.16 -256.67,-6.16l-274.52 0 0 448.56 0.02 0zm1662.51 3378.16l0 -1764.6 341.44 0 716.91 1182.55 0 -1182.55 326.01 0 0 1764.6 -352.36 0 -706 -1159.98 0 1159.98 -326 0zm-2424.73 -39.24l4196.79 -4156.08c-528.09,-495.79 -1238.25,-799.46 -2019.24,-799.46 -815.35,0 -1553.56,330.92 -2087.96,865.9 -534.63,535.26 -865.33,1274.82 -865.33,2091.76 0,770.21 293.99,1471.65 775.74,1997.89l0 -0.01z"/>
   <path class="fil3" d="M10224.74 3720.23c60.31,0 119.16,15.47 176.7,46.55 57.38,30.93 102.25,75.37 134.27,133 32.02,57.78 48.11,118.01 48.11,180.52 0,62.02 -15.77,121.76 -47.47,178.89 -31.54,57.31 -75.74,101.75 -132.8,133.32 -57.05,31.74 -116.72,47.53 -178.82,47.53 -62.25,0 -121.93,-15.77 -178.98,-47.53 -57.05,-31.59 -101.44,-76.01 -133.13,-133.32 -31.68,-57.13 -47.63,-116.87 -47.63,-178.89 0,-62.51 16.09,-122.74 48.27,-180.52 32.36,-57.62 77.22,-102.07 134.61,-133 57.53,-31.1 116.37,-46.55 176.86,-46.55l0.01 0zm0 59.57c-50.55,0 -99.8,13.03 -147.59,38.89 -47.8,25.9 -85.19,63 -112.18,111.19 -26.97,48.18 -40.48,98.32 -40.48,150.42 0,51.93 13.34,101.57 39.84,149.11 26.5,47.54 63.56,84.65 111.2,111.17 47.63,26.54 97.36,39.89 149.23,39.89 51.68,0 101.43,-13.35 149.06,-39.89 47.65,-26.52 84.69,-63.65 111.02,-111.17 26.34,-47.54 39.5,-97.17 39.5,-149.11 0,-52.08 -13.5,-102.22 -40.32,-150.42 -26.83,-48.18 -64.21,-85.29 -112.16,-111.19 -47.95,-25.88 -97.05,-38.89 -147.12,-38.89zm-157.83 499.09l0 -386.76 132.97 0c45.51,0 78.34,3.56 98.66,10.73 20.49,7.17 36.58,19.54 48.77,37.45 12.04,17.73 18.05,36.61 18.05,56.65 0,28.16 -10.09,52.9 -30.4,73.72 -20.15,21.01 -46.97,32.73 -80.46,35.33 13.66,5.69 24.71,12.53 32.84,20.51 15.61,15.15 34.64,40.7 57.23,76.69l47.14 75.68 -75.74 0 -34.47 -60.89c-26.98,-48 -48.94,-78.13 -65.52,-90.17 -11.37,-8.79 -27.96,-13.19 -49.89,-13.03l-36.76 0 0 164.07 -62.4 0 -0.02 0.02zm62.41 -217.8l75.75 0c36.25,0 60.95,-5.37 74.12,-16.11 13.18,-10.74 19.83,-25.07 19.83,-42.64 0,-11.41 -3.24,-21.66 -9.59,-30.61 -6.34,-9.12 -15.13,-15.79 -26.34,-20.19 -11.38,-4.4 -32.19,-6.68 -62.73,-6.68l-71.06 0 0 116.23 0.02 0z"/>
   <path class="fil5" d="M4133.41 10768.7l-20.53 -277.31c-4.08,-56.4 -6.26,-93.58 -6.26,-111.61 0,-51.49 7.45,-99.1 22.1,-142.38 14.89,-43.46 41.09,-89.88 78.64,-139.62 -44.8,0 -90.34,10.78 -136.72,32.12 -46.32,21.55 -80.37,46.22 -101.87,74.02 -21.73,28 -32.48,56.18 -32.48,84.39 0,13.13 3.91,26.85 11.74,41.32 10.17,18.43 15.26,32.52 15.26,41.92 0,8.79 -2.74,16.06 -8.04,21.34 -5.27,5.27 -12.11,8.05 -20.51,8.05 -12.12,0 -22.7,-6.28 -31.88,-19 -11.35,-16.84 -17.02,-37.6 -17.02,-62.49 0,-46.6 17.57,-91.64 52.59,-134.72 35.22,-43.29 83.3,-75.19 144.33,-95.79 39.33,-13.5 96.63,-22.69 171.9,-27.61 20.15,-1.57 40.89,-3.5 61.79,-5.68 -51.64,75.57 -85.25,138.84 -100.88,189.55 -15.65,50.72 -23.48,119.47 -23.48,206.24 0,66.16 3.5,126.69 10.36,181.34l109.71 -117.29 93.47 -96.17c95.47,-97.52 159.6,-174.48 192.43,-230.71 25.07,-42.47 37.55,-81.07 37.55,-115.91 0,-19.01 -4.49,-40.17 -13.47,-63.06 -5.87,-14.5 -8.81,-25.67 -8.81,-33.3 0,-10.19 3.93,-19.18 11.74,-26.81 8,-7.65 17.19,-11.58 27.97,-11.58 14.64,0 26.77,7.45 36.76,22.33 9.97,14.87 15.06,38.2 15.06,70.12 0,30.93 -6.45,63.63 -19.57,98.3 -12.92,34.65 -40.3,78.72 -81.94,132.17 -41.87,53.66 -106.21,124.57 -193.41,212.89 -91.54,92.44 -183.64,190.75 -276.54,294.91l0 0 0.01 0.03zm873.2 -514.83l38.36 -7.86 -42.85 145.14c-17.03,57.75 -33.23,124.35 -48.5,199.73 -8.4,40.94 -12.53,67.38 -12.53,79.12 0,11.75 4.7,17.63 14.28,17.63 5.87,0 15.63,-3.91 28.73,-11.75 23.48,-13.9 45.97,-31.15 67.5,-51.72l18.36 22.33c-43.41,39.36 -71.18,63.26 -83.49,71.47 -24.45,16.68 -47.51,28.99 -69.62,36.81 -14.66,5.28 -28.74,8.02 -42.45,8.02 -9.76,0 -17.17,-2.34 -22.28,-6.85 -4.9,-4.48 -7.44,-11.35 -7.44,-19.97 0,-5.68 1.56,-13.52 4.7,-23.51l22.89 -77.16c-32.86,39.36 -72.2,73.02 -117.53,101.24 -27.79,17.44 -53.4,26.24 -76.71,26.24 -22.26,0 -39.09,-7.81 -51.01,-23.47 -16.04,-21.17 -24.08,-48.8 -24.08,-82.85 0,-40.54 10.77,-85.78 32.28,-135.53 21.71,-49.75 50.46,-94.98 86.85,-135.52 36.16,-40.53 74.29,-70.5 114.4,-89.71 30.91,-14.47 70.61,-21.7 119.1,-21.7 12.33,0 24.64,0.78 37.14,2.33l13.88 -22.52 0 0 0.02 0.06zm-70.97 88.73c-20.53,-4.14 -37.91,-6.28 -52,-6.28 -34.23,0 -64.16,9.4 -89.78,28.39 -25.63,19 -49.26,53.1 -71.2,102.23 -21.9,49.16 -32.85,98.33 -32.85,147.28 0,26.05 4.3,44.64 13.11,56.2 8.8,11.56 20.33,17.24 34.4,17.24 26.21,0 54.37,-14.29 84.48,-42.7 30.12,-28.61 52.24,-69.72 66.31,-123.17l47.51 -179.19 0 0 0.02 0zm410.87 265.16l19.58 21.14c-29.94,33.69 -65.13,64.41 -105.62,92.24 -40.69,27.8 -74.31,41.7 -100.51,41.7 -11.93,0 -21.52,-4.5 -29.14,-13.5 -7.63,-9.02 -11.54,-21.33 -11.54,-37.01 0,-30.73 11.74,-94.21 35.41,-190.75l61.81 -252.05c22.49,-90.86 41.25,-151.96 56.5,-182.9 23.68,-46.99 57.11,-83.61 100.34,-109.65 43.22,-26.07 88.97,-38.98 136.88,-38.98 16.44,0 29.35,3.93 38.54,11.93 9.37,8.05 14.07,17.65 14.07,28.82 0,12.5 -4.49,22.71 -13.5,30.74 -9.18,8 -22.28,11.93 -39.67,11.93 -11.15,0 -27.19,-1.96 -47.92,-5.86 -18.2,-3.15 -34.8,-4.69 -50.27,-4.69 -15.43,0 -27.19,3.31 -35.18,9.77 -10.77,9.03 -20.74,28.2 -29.56,57.58 -8.98,29.38 -23.27,87.14 -43.21,173.7l-58.08 240.27c-28.37,120.65 -42.45,183.51 -42.45,188.81 0,12.31 4.31,18.4 13.1,18.4 8.42,0 20.53,-4.89 36.57,-14.89 31.3,-19.97 62.61,-45.64 93.88,-76.73l0 0 -0.03 -0.02zm307.82 -289.86c-29.34,47.2 -49.68,88.9 -61.03,124.95 -11.14,36.04 -16.81,71.85 -16.81,107.69 0,32.9 7.23,84.43 21.71,154.74 84.28,-64.25 143.96,-124.57 179.12,-180.57 35.02,-56.03 52.61,-104.38 52.61,-144.93 0,-11.93 -4.29,-26.82 -12.89,-44.84 -9.4,-18.98 -14.09,-33.3 -14.09,-42.49 0,-9.83 3.31,-18.6 10.15,-26.05 6.86,-7.44 15.07,-11.15 24.65,-11.15 12.5,0 22.5,5.47 30.14,16.23 7.59,10.99 11.3,29.39 11.3,55.42 0,81.49 -28.73,160.78 -86.42,237.93 -70.6,94.78 -159.98,167.86 -268.34,219.16 -2.73,-18.03 -8,-46.79 -16.04,-86.16 -15.64,-79.33 -23.48,-134.54 -23.48,-165.47 0,-40.95 9.59,-80.68 28.57,-119.26 19.18,-38.59 47.35,-71.9 84.7,-100.29 -67.27,1.18 -115.38,8.62 -144.51,22.34 -20.53,9.97 -30.91,21.69 -30.91,35.02 0,5.49 2.53,14.52 7.8,27.02 3.34,8.83 5.09,16.27 5.09,22.57 0,6.05 -2.53,11.53 -7.63,16.23 -5.27,4.91 -11.55,7.28 -19.15,7.28 -9.99,0 -18.19,-4.13 -25.05,-12.55 -6.86,-8.42 -10.36,-19.78 -10.36,-33.89 0,-22.52 7.42,-42.88 22.28,-61.1 14.89,-18.23 40.69,-32.32 77.47,-42.7 36.77,-10.38 85.25,-15.08 145.49,-14.27 24.45,-10.98 39.88,-16.47 46.37,-16.47 6.03,0 11.71,2.54 16.62,7.45 4.89,5.1 7.42,10.38 7.42,16.06 0,11.94 -11.56,22.72 -34.81,32.12l0 0 0.03 -0.02zm552.29 283.97l18.77 24.68c-93.5,89.3 -173.46,133.93 -240.35,133.93 -26.97,0 -47.71,-9.19 -61.99,-27.42 -14.27,-18.38 -21.5,-47.77 -21.5,-88.12 0,-81.65 24.81,-162.75 74.49,-243.63 55.74,-91.83 122.22,-137.85 199.85,-137.85 27.03,0 47.75,6.82 62.01,20.36 14.28,13.53 21.51,32.12 21.51,55.82 0,24.85 -8.58,49.12 -25.8,73.23 -17.21,24.08 -47.91,49.17 -92.11,75 -22.29,12.55 -69.62,35.28 -142.16,68.18 -3.34,20.55 -5.1,40.14 -5.1,58.94 0,27.02 4.3,46.03 12.9,56.61 8.62,10.75 21.12,16.06 37.55,16.06 15.66,0 32.65,-4.53 51.41,-13.31 25.26,-11.77 61.99,-36.05 110.52,-72.47l0 0 0 -0.01zm-200.47 -82.27c61.42,-27.43 107.58,-56.98 138.47,-88.52 20.9,-22.12 31.47,-44.07 31.47,-65.81 0,-16.22 -4.3,-29.36 -12.89,-39.15 -8.63,-9.6 -19.75,-14.47 -33.44,-14.47 -14.09,0 -27.79,5.28 -41.1,16.02 -17.96,14.1 -33.01,35.47 -45.19,63.87 -17.57,41.89 -30.08,84.59 -37.34,128.04l0 0 0.02 0.02zm549.92 -256.14c34.03,0 60.44,6.66 79.01,19.99 18.57,13.28 27.74,28.56 27.74,45.82 0,10.37 -3.89,19.58 -11.7,27.23 -7.85,7.64 -17.22,11.56 -28.38,11.56 -7.21,0 -13.46,-1.59 -18.97,-4.91 -5.27,-3.32 -12.89,-11.56 -22.86,-24.46 -18.76,-25.09 -37.16,-37.61 -55.55,-37.61 -15.63,0 -29.54,6.04 -41.67,18.04 -11.93,11.93 -18.01,27.02 -18.01,44.83 0,15.65 3.76,30.93 11.35,45.61 7.63,14.69 27.02,38.4 57.91,71.1 42.24,45.03 63.35,87.73 63.35,128.25 0,40.35 -17.19,75.81 -51.64,106.14 -34.41,30.38 -78.61,45.45 -132.76,45.45 -45.6,0 -79.42,-9.19 -101.5,-27.62 -22.13,-18.59 -33.26,-41.32 -33.26,-68.34 0,-13.33 4.1,-24.29 12.52,-33.1 8.4,-8.79 18.57,-13.12 30.9,-13.12 10.56,0 19.74,3.55 27.37,10.57 7.64,7.07 11.35,15.27 11.35,24.89 0,3.89 -0.21,8.8 -0.78,14.88 -0.21,4.89 -0.4,9.2 -0.4,12.51 0,12.74 5.27,23.33 16.04,32.12 10.36,8.83 24.64,13.11 42.62,13.11 20.56,0 38.72,-3.5 54.56,-10.55 15.67,-7.06 27.79,-17.84 36.57,-32.12 8.8,-14.29 13.29,-28.61 13.29,-42.7 0,-13.69 -4.07,-27.42 -12.32,-41.31 -8.41,-13.7 -26.79,-36.42 -55.71,-68.14 -39.92,-44.26 -59.86,-86.98 -59.86,-127.72 0,-37.39 15.04,-70.29 45.38,-98.3 30.33,-27.99 68.65,-42.1 115.38,-42.1l0.03 0zm1148.94 -169.19c-11.14,22.53 -20.37,44.43 -27.39,65.81 -7.05,21.53 -18.4,64.04 -33.84,127.88 -26.2,109.08 -48.32,182.89 -66.31,221.88 -25.02,53.06 -61.8,102.01 -110.28,147.05 48.89,53.29 86.83,87.54 114.2,103.04 27.19,15.25 54.37,22.88 81.18,22.88 30.13,0 55.55,-8.41 76.27,-25.05 20.74,-16.65 31.07,-34.65 31.07,-54.06 0,-7.43 -2.32,-16.85 -6.82,-28.77 -4.89,-13.31 -7.25,-23.31 -7.25,-29.76 0,-10.78 3.14,-19.58 9.58,-26.24 6.27,-6.66 14.27,-10.02 23.87,-10.02 10.57,0 18.97,3.93 25.8,11.77 6.66,7.8 10,19.18 10,33.68 0,45.24 -18.4,85.18 -55.34,119.84 -36.77,34.7 -80.41,52.12 -130.27,52.12 -22.27,0 -44.36,-4.12 -66.28,-12.55 -21.9,-8.21 -42.82,-20.36 -62.77,-36.61 -13.31,-11.16 -40.06,-39.93 -80.17,-86.56 -60.82,48.17 -125.76,72.25 -194.98,72.25 -76.08,0 -139.05,-24.06 -188.73,-72.06 -49.67,-48.17 -74.52,-107.89 -74.52,-179.36 0,-69.12 24.07,-127.67 72.18,-175.88 48.29,-47.98 105.59,-72.04 172.08,-72.04 36.4,0 63.74,7.01 82.35,21.12 18.57,14.11 27.75,30.58 27.75,49.75 0,43.29 -39.51,74.42 -118.72,93.02 34.45,12.96 66.69,31.74 96.65,56.23 38.51,31.11 84.07,78.31 136.69,141.37 16.82,-19.58 30.69,-38.38 41.68,-56.4 10.94,-18.19 21.67,-41.7 32.25,-70.71 7.05,-17.98 18,-56.77 33.06,-116.31 13.88,-55.2 23.67,-91.05 29.51,-107.5 12.73,-36.26 25.62,-68.37 38.53,-95.95 12.93,-27.63 28.16,-55.62 45.38,-83.83 -69.41,0 -118.31,6.47 -146.67,19.38 -40.3,18.23 -60.42,44.27 -60.42,77.74 0,9.8 2.53,27.62 7.8,53.09 1.8,9.6 2.73,17.42 2.73,23.51 0,9 -2.91,16.63 -8.78,22.72 -6.08,6.05 -13.5,9.19 -22.68,9.19 -10.57,0 -19.57,-4.5 -26.79,-13.69 -7.26,-9.24 -10.97,-22.52 -10.97,-39.77 0,-35.65 11.15,-70.3 33.63,-104.19 22.32,-33.88 51.64,-58.77 88.02,-74.62 36.16,-15.86 87.79,-23.87 154.69,-23.87 10.73,0 20.72,0.15 29.91,0.57 33.26,1.98 51.84,2.94 55.55,2.94 15.05,0 26.2,-3.15 33.84,-9.6 7.62,-6.25 11.51,-14.49 11.51,-24.47 0,-3.92 -1.13,-10.79 -3.5,-20.97 -2.34,-9.19 -3.52,-15.65 -3.52,-19.58 0,-9.97 3.15,-18.19 9.18,-24.85 6.08,-6.5 13.71,-9.82 22.89,-9.82 9.41,0 17.61,4.12 24.45,12.15 6.83,8.05 10.36,19.2 10.36,33.1 0,28.01 -13.31,52.88 -39.7,74.63 -26.42,21.53 -65.72,33.69 -117.93,36.41l-0.01 -0.03zm-595.71 310.21c53.38,1.17 89.79,-3.72 109.33,-14.89 19.34,-10.98 29.15,-25.66 29.15,-44.08 0,-13.29 -4.7,-24.28 -14.3,-32.7 -9.58,-8.64 -22.26,-12.91 -38.31,-12.91 -37.76,0 -71.99,16.46 -102.9,49.54 -30.88,32.89 -46.32,71.28 -46.32,115.16 0,34.25 11.35,69.72 34.21,105.93 22.89,36.26 53.21,65.03 90.93,86.77 37.75,21.74 76.69,32.7 116.77,32.7 38.93,0 78.24,-11.37 118.32,-33.89 -63.76,-76.96 -101.31,-120.81 -112.25,-131.59 -21.71,-21.15 -46.93,-40.76 -75.5,-58.73 -28.56,-18.04 -64.93,-35.84 -109.13,-53.1l0 -8.21 0 0zm1683.18 -193.88l-30.48 0c6.45,-31.93 9.79,-52.48 9.79,-61.69 0,-12.53 -4.52,-21.74 -13.1,-27.81 -8.82,-6.06 -25.44,-9.21 -49.88,-9.21l-36.4 0.59 -12.12 -0.59 -114.2 0c-2.38,8.83 -8.42,31.53 -18.57,67.98 -20.93,74.22 -36.98,134.92 -47.72,182.31l111.83 0c27.18,0 44.8,-2.73 52.8,-8.2 8.04,-5.32 14.87,-19.01 20.17,-41.16l30.5 0c-11.71,48.4 -21.88,98.91 -30.5,151.59l-31.72 0c2.77,-21.94 4.14,-34.85 4.14,-38.58 0,-9.42 -4.69,-16.27 -13.88,-20.77 -5.47,-2.73 -19.96,-4.5 -43.8,-5.28l-109.9 0c-10.97,53.07 -25.44,110.43 -43.22,172.15 -17.81,61.48 -33.06,109.07 -45.96,142.75 30.29,5.49 57.48,8.22 81.35,8.22 15.65,0 30.9,-1.19 46.18,-3.53l-9.41 32.9c-11.14,0.78 -21.5,1.15 -31.09,1.15 -8.4,0 -34.8,-1.35 -79.23,-4.09 -26.39,-1.95 -48.69,-2.94 -67.04,-2.94 -37.18,0 -76.69,3.52 -118.93,10.59l7.05 -31.73c34.03,-7.26 56.73,-14.9 67.66,-22.93 10.74,-8.03 19.15,-17.81 24.81,-29.38 11.97,-23.3 34.24,-95.77 66.69,-216.99l87.82 -344.07c-51.42,1.54 -96.25,13.12 -134.76,34.45 -38.52,21.53 -69.22,50.34 -91.92,86.56 -22.85,36.26 -34.19,73.08 -34.19,110.26 0,14.89 1.94,30.37 5.83,46.02 1.79,8.81 7.27,21.54 16.04,38.01 11.17,20.36 16.81,34.44 16.81,42.46 0,8.05 -3.3,15.07 -9.76,20.98 -6.45,6.08 -14.85,9.02 -25.02,9.02 -15.25,0 -27.79,-8.05 -37.38,-24.11 -12.9,-21.53 -19.35,-51.91 -19.35,-91.25 0,-76.96 29.92,-147.67 89.96,-212.47 60.04,-64.22 139.26,-96.35 237.41,-96.35l220.23 0c24.45,0 51.42,-1.58 80.93,-4.5 8.8,-0.81 27.59,-4.69 56.73,-11.97 -19.54,79.11 -31.29,129.64 -35.22,151.58l0.02 0.03zm389.17 43.27l38.35 -7.85 -42.84 145.14c-17.02,57.76 -33.24,124.36 -48.5,199.72 -8.4,40.94 -12.51,67.39 -12.51,79.12 0,11.77 4.68,17.65 14.27,17.65 5.87,0 15.63,-3.92 28.73,-11.77 23.46,-13.89 45.95,-31.13 67.5,-51.7l18.38 22.31c-43.42,39.37 -71.19,63.26 -83.52,71.47 -24.43,16.69 -47.5,28.99 -69.62,36.83 -14.66,5.28 -28.73,8 -42.45,8 -9.76,0 -17.17,-2.32 -22.28,-6.83 -4.89,-4.5 -7.42,-11.37 -7.42,-19.97 0,-5.69 1.55,-13.54 4.7,-23.51l22.89 -77.18c-32.86,39.38 -72.2,73.04 -117.53,101.24 -27.79,17.45 -53.4,26.24 -76.7,26.24 -22.27,0 -39.1,-7.8 -51.01,-23.47 -16.03,-21.15 -24.07,-48.79 -24.07,-82.84 0,-40.54 10.76,-85.77 32.28,-135.52 21.71,-49.75 50.44,-94.99 86.85,-135.53 36.16,-40.53 74.28,-70.5 114.4,-89.71 30.89,-14.47 70.59,-21.69 119.09,-21.69 12.32,0 24.65,0.78 37.15,2.32l13.86 -22.52 0 0 0 0.05zm-70.97 88.74c-20.53,-4.13 -37.92,-6.28 -52,-6.28 -34.24,0 -64.16,9.39 -89.79,28.4 -25.62,19 -49.26,53.08 -71.18,102.23 -21.92,49.16 -32.87,98.32 -32.87,147.28 0,26.03 4.3,44.63 13.12,56.19 8.82,11.56 20.32,17.25 34.41,17.25 26.2,0 54.36,-14.31 84.49,-42.71 30.11,-28.6 52.24,-69.72 66.31,-123.18l47.51 -179.18zm560.09 -63.85l82.35 0 -54.19 200.73c-31.87,116.52 -47.92,182.89 -47.92,198.95 0,7.27 1.78,12.74 5.09,16.46 3.51,3.72 7.44,5.69 11.55,5.69 6.65,0 14.27,-2.94 23.05,-8.63 12.53,-8.81 36.56,-30.94 71.79,-66.58l18.76 21.12c-76.67,79.9 -133.16,119.88 -169.56,119.88 -12.13,0 -22.51,-4.7 -31.1,-14.1 -8.58,-9.19 -12.89,-22.52 -12.89,-39.76 0,-19.78 4.11,-46.24 12.51,-79.33 -34.03,38.98 -75.86,73.26 -125.93,102.62 -33.27,19.58 -61.99,29.38 -86.46,29.38 -13.47,0 -23.83,-4.5 -31.47,-13.33 -7.63,-8.78 -11.54,-22.71 -11.54,-41.89 0,-14.87 1.75,-30.93 5.27,-48.17 4.89,-24.28 17.62,-72.68 38.16,-145.5 25.8,-92.45 38.69,-147.88 38.69,-166.26 0,-10.78 -3.71,-16.06 -11.3,-16.06 -6.86,0 -16.25,3.51 -28,10.37 -11.72,7.03 -31.88,23.87 -60.4,50.71l-24.65 -19.99c51.06,-45.82 89.96,-75.77 116.78,-90.08 26.77,-14.3 48.48,-21.53 64.72,-21.53 9.18,0 16.62,3.32 22.3,9.97 5.67,6.87 8.59,17.25 8.59,31.55 0,26.42 -13.88,91.43 -41.65,195.04 -24.65,93.23 -36.98,146.29 -36.98,159.44 0,8 2.56,14.89 7.63,20.72 5.29,5.68 10.77,8.64 16.8,8.64 21.35,0 51.64,-17.62 90.77,-53.07 39.32,-35.46 64.93,-75.8 77.06,-120.85l62.17 -236.14 0 0zm468.36 344.26l12.94 32.9c-91.54,71.28 -168.77,106.92 -231.75,106.92 -33.45,0 -57.7,-11.95 -72.96,-35.66 -15.06,-23.66 -22.7,-53.82 -22.7,-90.27 0,-60.49 16.04,-122.78 48.32,-186.61 32.08,-64.04 71.19,-113.01 116.93,-147.25 36,-26.45 76.68,-39.57 121.87,-39.57 28.16,0 49.68,5.28 64.11,16.06 14.69,10.76 21.91,23.67 21.91,38.96 0,11.97 -3.93,21.53 -11.55,28.97 -7.63,7.44 -18.35,11.2 -32.07,11.2 -13.27,0 -30.5,-6.09 -51.63,-18.23 -21.69,-12.91 -39.88,-19.37 -54.54,-19.37 -18.6,0 -37.39,8.41 -55.95,25.43 -18.36,17.04 -36.16,50.15 -52.98,99.1 -16.81,48.96 -25.26,98.3 -25.26,147.68 0,36.21 7.05,64.41 21.34,84.4 10.36,15.27 24.81,22.92 43.58,22.92 44.82,0 98.41,-25.88 160.38,-77.58l0.01 0zm383.53 -21.14l18.78 24.68c-93.51,89.3 -173.46,133.94 -240.36,133.94 -26.97,0 -47.72,-9.19 -61.99,-27.42 -14.28,-18.39 -21.51,-47.77 -21.51,-88.12 0,-81.66 24.82,-162.76 74.5,-243.63 55.74,-91.84 122.22,-137.85 199.86,-137.85 27.01,0 47.75,6.82 62,20.36 14.28,13.52 21.52,32.12 21.52,55.82 0,24.84 -8.58,49.13 -25.8,73.23 -17.22,24.08 -47.93,49.16 -92.13,75 -22.28,12.55 -69.61,35.28 -142.15,68.17 -3.34,20.56 -5.09,40.14 -5.09,58.94 0,27.02 4.28,46.03 12.89,56.62 8.61,10.75 21.13,16.06 37.55,16.06 15.66,0 32.66,-4.53 51.42,-13.32 25.26,-11.77 61.98,-36.04 110.51,-72.46l0 0 0 -0.02zm-200.47 -82.27c61.42,-27.42 107.58,-56.97 138.45,-88.52 20.92,-22.11 31.49,-44.07 31.49,-65.81 0,-16.22 -4.3,-29.35 -12.89,-39.14 -8.62,-9.6 -19.75,-14.47 -33.43,-14.47 -14.09,0 -27.79,5.27 -41.1,16.01 -17.97,14.11 -33.02,35.47 -45.19,63.87 -17.58,41.89 -30.08,84.6 -37.34,128.06l0 0 0.01 0zm458.99 -344.08l91.9 -34.66 -40.27 161.41 116.76 0 -9.18 41.11 -117.75 0 -50.08 190.95c-16.4,57.75 -24.44,98.08 -24.44,120.61 0,10.37 2.16,17.82 6.45,22.34 4.53,4.49 10.37,6.83 18,6.83 11.95,0 29.92,-7.03 54.37,-21.14 31.88,-18.59 62.4,-39.75 91.33,-63.45l21.91 25.86c-83.7,63.25 -139.44,102.02 -167.8,116.11 -28.17,14.32 -50.84,21.35 -68.05,21.35 -14.09,0 -25.22,-5.08 -33.44,-15.45 -8.23,-10.38 -12.32,-27.02 -12.32,-50.32 0,-27.62 7.23,-69.56 21.71,-126.13l58.08 -227.56 -92.89 0 10.36 -41.11 93.06 0 32.29 -126.74 0 -0.01zm466.22 87.95c34.04,0 60.43,6.65 79,19.98 18.57,13.29 27.76,28.57 27.76,45.82 0,10.38 -3.88,19.59 -11.71,27.23 -7.84,7.65 -17.22,11.56 -28.37,11.56 -7.23,0 -13.48,-1.59 -18.99,-4.9 -5.27,-3.33 -12.89,-11.56 -22.85,-24.47 -18.77,-25.08 -37.17,-37.6 -55.54,-37.6 -15.64,0 -29.55,6.05 -41.66,18.03 -11.93,11.94 -18.01,27.02 -18.01,44.83 0,15.66 3.74,30.94 11.35,45.61 7.63,14.7 27.01,38.4 57.91,71.1 42.24,45.03 63.34,87.73 63.34,128.26 0,40.35 -17.18,75.81 -51.63,106.14 -34.42,30.38 -78.61,45.44 -132.78,45.44 -45.57,0 -79.41,-9.19 -101.5,-27.61 -22.11,-18.6 -33.25,-41.33 -33.25,-68.34 0,-13.33 4.13,-24.29 12.53,-33.11 8.4,-8.79 18.57,-13.12 30.89,-13.12 10.57,0 19.75,3.55 27.38,10.57 7.64,7.08 11.35,15.29 11.35,24.89 0,3.9 -0.21,8.8 -0.76,14.89 -0.21,4.89 -0.4,9.19 -0.4,12.5 0,12.75 5.27,23.33 16.03,32.12 10.36,8.83 24.65,13.12 42.6,13.12 20.57,0 38.73,-3.51 54.57,-10.56 15.67,-7.06 27.78,-17.84 36.57,-32.11 8.82,-14.29 13.31,-28.61 13.31,-42.7 0,-13.69 -4.09,-27.43 -12.34,-41.31 -8.4,-13.71 -26.77,-36.42 -55.7,-68.15 -39.91,-44.26 -59.87,-86.97 -59.87,-127.71 0,-37.4 15.04,-70.29 45.38,-98.3 30.3,-27.99 68.63,-42.1 115.36,-42.1l0.03 0z"/>
   <path class="fil6" d="M4993.51 11109.66c-21.73,3.3 -32.25,11.86 -36.21,35.6l-73.06 415.28c-0.66,3.94 -1.32,7.23 -1.32,10.53 0,15.82 9.21,21.77 26.99,25.06 19.74,3.94 59.24,7.24 112.57,7.24 141.5,0 228.39,-46.13 228.39,-172.03 0,-32.97 -15.13,-66.57 -48.05,-81.75 62.54,-24.38 83.6,-74.49 83.6,-123.91 0,-85.71 -63.85,-122.61 -182.33,-122.61 -51.34,0 -92.81,3.96 -110.58,6.59zm49.36 70.53c13.83,-0.66 32.26,-1.32 48.05,-1.32 75.71,0 104.01,13.84 104.01,50.1 0,46.13 -19.75,85.03 -92.15,85.03l-83.6 0 23.69 -133.81zm-35.55 201.04l83.6 0c53.33,0 69.77,24.4 69.77,54.71 0,70.53 -40.8,91.63 -125.06,91.63 -13.82,0 -20.4,-0.66 -53.98,-1.32l25.67 -145.02zm586.52 -154.89c-9.88,0 -13.83,6.59 -15.14,13.83l-46.74 264.99c-17.12,8.56 -55.3,23.74 -85.57,23.74 -30.29,0 -40.16,-6.59 -40.16,-34.29 0,-10.55 1.98,-23.07 4.61,-39.55l37.52 -214.89c1.98,-9.89 -1.97,-13.83 -10.54,-13.83l-60.56 0c-10.51,0 -14.47,6.59 -15.79,13.83l-37.52 214.89c-3.29,17.14 -4.61,33.62 -4.61,48.78 0,73.18 48.05,100.19 99.39,100.19 36.87,0 73.08,-14.49 105.34,-32.96l-1.99 13.85c0,0.66 0,1.32 0,1.32 0,6.6 4.62,11.86 11.2,11.86l56.6 0c7.25,0 13.83,-5.93 15.14,-13.18l60.56 -344.75c1.98,-9.89 -2.63,-13.83 -11.19,-13.83l-60.55 0zm197.48 -133.82c-9.21,0 -14.49,5.93 -15.8,13.18l-10.53 58.01c-1.33,7.26 4.6,13.19 11.84,13.19l63.85 0c7.24,0 13.83,-5.93 15.15,-13.19l10.52 -58.01c1.32,-8.56 -3.29,-13.18 -11.18,-13.18l-63.85 0zm-22.38 133.82c-9.21,0 -13.83,5.93 -15.15,13.18l-60.56 344.73c-1.3,8.59 2.63,13.85 10.54,13.85l60.56 0c11.19,0 14.49,-6.59 15.79,-13.85l60.56 -344.73c1.98,-10.55 -3.94,-13.18 -11.18,-13.18l-60.56 0zm200.76 -129.86c-9.88,0 -13.83,5.93 -15.14,13.18l-83.59 474.59c-1.33,9.23 2.63,13.85 10.53,13.85l61.2 0c11.2,0 13.83,-6.59 15.16,-13.85l83.59 -474.59c1.97,-9.89 -2.63,-13.18 -10.53,-13.18l-61.22 0zm209.97 62.63c-7.23,1.3 -13.81,5.93 -15.13,13.16l-9.88 54.07 -61.86 0c-10.54,0 -13.83,5.93 -15.15,13.18l-5.26 29.65c-1.33,7.26 1.3,11.88 10.53,13.19l60.56 9.22 -36.21 206.99c-1.97,11.86 -3.29,22.41 -3.29,32.3 0,52.74 31.59,72.5 89.52,72.5 14.49,0 28.96,-1.97 45.42,-4.6 8.55,-1.33 13.17,-5.29 14.47,-11.88l7.25 -41.53c1.32,-9.22 -5.26,-9.89 -11.84,-9.89l-34.89 0c-16.46,0 -22.38,-1.97 -22.38,-13.83 0,-5.28 1.31,-13.18 3.29,-23.07l36.19 -206.99 59.25 0c10.54,0 14.48,-4.6 15.8,-13.18l6.58 -38.88c1.97,-11.21 -3.95,-13.18 -11.18,-13.18l-59.25 0 12.51 -67.9c1.32,-5.93 -2.63,-11.21 -11.85,-9.88l-63.2 10.55zm538.46 -70.55c-57.92,0 -104.01,11.21 -121.13,105.48l-5.92 32.3 -58.57 0c-10.54,0 -13.83,5.93 -15.15,13.18l-5.26 30.32c-1.33,7.91 3.29,11.21 10.53,12.52l57.27 9.22 -54.64 310.48c-5.92,32.3 -14.49,39.54 -46.08,39.54l-29.63 0c-6.58,0 -10.51,3.3 -11.84,11.21l-6.58 38.9c-1.31,6.59 4.61,9.22 9.87,10.55 12.51,3.94 26.34,5.26 42.8,5.26 64.51,0 111.9,-11.86 128.35,-105.46l54.64 -310.48 63.19 0c11.19,0 13.82,-5.26 15.13,-12.52l7.25 -39.54c1.96,-9.24 -0.67,-13.18 -11.19,-13.18l-63.2 0 5.92 -32.3c5.94,-32.3 14.49,-39.56 46.09,-39.56l29.62 0c6.58,0 10.54,-3.29 11.84,-11.21l6.59 -39.54c1.32,-7.25 -1.33,-8.58 -9.88,-10.55 -4.6,-1.32 -27.64,-4.62 -50.02,-4.62zm360.05 263.02c0,-69.22 -41.47,-129.86 -131.65,-129.86 -103.33,0 -166.54,56.03 -186.29,164.13l-9.85 53.39c-1.99,10.55 -2.65,21.1 -2.65,31.65 0,69.21 42.13,132.48 131.65,132.48 103.35,0 165.23,-55.36 185.64,-164.13l9.86 -53.39c1.98,-11.21 3.29,-23.07 3.29,-34.27zm-87.53 5.27c0,8.56 -0.67,18.45 -2.63,29l-9.88 53.39c-11.2,61.3 -39.5,89 -85.58,89 -38.84,0 -57.93,-21.11 -57.93,-60 0,-8.56 0.66,-18.45 2.63,-29l9.87 -53.39c11.87,-65.26 46.09,-88.98 86.25,-88.98 38.82,0 57.27,21.08 57.27,59.98zm375.84 -124.58c0,-5.93 -1.97,-10.55 -10.52,-10.55 -27.66,0 -62.54,2.63 -100.06,31.64l2.63 -13.84c1.97,-9.88 -1.96,-13.18 -11.19,-13.18l-57.27 0c-9.87,0 -13.81,5.93 -15.13,13.18l-60.56 344.73c-1.99,9.89 2.63,13.85 10.54,13.85l60.55 0c12.51,0 14.48,-6.59 15.8,-13.85l46.73 -264.97c44.76,-22.41 73.72,-23.74 94.79,-23.74 10.52,0 13.82,-5.93 15.14,-13.18l8.55 -47.46c0,-0.66 0,-1.32 0,-2.63zm462.75 303.2c0,-5.93 -3.95,-10.53 -10.53,-10.53l-121.12 0c-30.93,0 -43.43,-8.58 -43.43,-34.29 0,-6.59 0.64,-13.83 1.96,-22.41l60.56 -346.72c1.32,-9.22 -2.63,-13.18 -10.54,-13.18l-65.15 0c-11.2,0 -14.49,5.93 -15.8,13.18l-60.57 346.72c-1.97,11.21 -1.97,21.77 -1.97,30.99 0,84.38 71.76,104.14 130.33,104.14 34.9,0 92.83,-4.6 113.22,-9.23 9.88,-1.97 14.49,-4.6 15.8,-13.83l7.24 -42.19c0,-0.66 0,-1.32 0,-2.65zm379.8 -183.89c0,-69.22 -41.47,-129.86 -131.65,-129.86 -103.33,0 -166.53,56.03 -186.28,164.13l-9.86 53.39c-1.99,10.55 -2.65,21.1 -2.65,31.65 0,69.21 42.13,132.48 131.65,132.48 103.35,0 165.23,-55.36 185.64,-164.13l9.86 -53.39c1.98,-11.21 3.29,-23.07 3.29,-34.27zm-87.53 5.27c0,8.56 -0.67,18.45 -2.63,29l-9.88 53.39c-11.2,61.3 -39.5,89 -85.58,89 -38.84,0 -57.93,-21.11 -57.93,-60 0,-8.56 0.66,-18.45 2.63,-29l9.88 -53.39c11.86,-65.26 46.08,-88.98 86.24,-88.98 38.82,0 57.27,21.08 57.27,59.98zm469.98 -36.26c0,-56.02 -23.71,-98.87 -95.44,-98.87 -31.6,0 -67.15,7.25 -109.28,31.64l2.63 -13.84c1.97,-11.87 -3.95,-13.18 -12.5,-13.18l-52.67 0c-12.5,0 -17.1,5.93 -18.42,13.18l-60.56 344.73c-1.99,9.89 3.29,13.85 10.54,13.85l60.55 0c11.85,0 14.48,-6.59 15.8,-13.85l46.73 -264.97c30.28,-14.51 55.96,-23.74 84.92,-23.74 29.63,0 40.81,8.57 40.81,34.27 0,10.56 -1.97,23.08 -4.6,39.56l-37.53 214.88c-1.97,9.89 3.29,13.85 10.53,13.85l60.56 0c11.2,0 14.49,-6.59 15.8,-13.85l37.51 -214.88c3.29,-17.14 4.62,-33.61 4.62,-48.78zm251.45 -98.87c-105.97,0 -165.87,42.19 -186.94,165.46l-8.55 50.75c-2.63,14.49 -3.3,27.68 -3.3,40.2 0,89 59.9,124.59 136.27,124.59 19.09,0 39.48,-2.65 59.89,-6.59l-0.66 5.27c-5.26,44.16 -22.38,58.67 -72.4,58.67 -30.28,0 -91.5,-5.29 -120.47,-7.92 -0.66,0 -1.3,0 -1.3,0 -7.25,0 -13.17,3.96 -14.49,11.21l-6.59 34.94c-1.96,9.22 0,11.86 10.54,15.82 15.8,5.26 56.6,15.82 120.45,15.82 114.55,0 154.03,-36.93 171.15,-133.16l59.9 -340.13c1.98,-11.2 -0.65,-13.85 -14.48,-17.79 -34.88,-9.22 -86.89,-17.14 -129.02,-17.14zm49.38 77.12l-40.16 228.07c-19.09,2.63 -48.05,5.28 -63.85,5.28 -44.1,0 -58.59,-17.8 -58.59,-52.74 0,-11.86 1.99,-25.7 4.62,-41.52l8.55 -50.75c10.53,-63.3 33.58,-94.27 87.55,-94.27 23.7,0 50.02,3.3 61.88,5.93zm590.45 236.63c0,-5.93 -3.96,-10.53 -10.54,-10.53l-121.11 0c-30.93,0 -43.44,-8.58 -43.44,-34.29 0,-6.59 0.65,-13.83 1.97,-22.41l60.56 -346.72c1.32,-9.22 -2.63,-13.18 -10.54,-13.18l-65.16 0c-11.19,0 -14.49,5.93 -15.79,13.18l-60.58 346.72c-1.96,11.21 -1.96,21.77 -1.96,30.99 0,84.38 71.75,104.14 130.32,104.14 34.91,0 92.83,-4.6 113.23,-9.23 9.87,-1.97 14.49,-4.6 15.79,-13.83l7.25 -42.19c0,-0.66 0,-1.32 0,-2.65zm148.11 -442.95c-9.22,0 -14.49,5.93 -15.8,13.18l-10.54 58.01c-1.32,7.26 4.6,13.19 11.85,13.19l63.84 0c7.25,0 13.83,-5.93 15.16,-13.19l10.52 -58.01c1.32,-8.56 -3.3,-13.18 -11.18,-13.18l-63.85 0zm-22.38 133.82c-9.22,0 -13.83,5.93 -15.16,13.18l-60.55 344.73c-1.31,8.59 2.63,13.85 10.53,13.85l60.56 0c11.2,0 14.49,-6.59 15.8,-13.85l60.55 -344.73c1.99,-10.55 -3.93,-13.18 -11.18,-13.18l-60.55 0zm327.15 -137.78c-57.93,0 -104.01,11.21 -121.14,105.48l-5.92 32.3 -58.57 0c-10.53,0 -13.83,5.93 -15.15,13.18l-5.26 30.32c-1.32,7.91 3.29,11.21 10.54,12.52l57.26 9.22 -54.63 310.48c-5.92,32.3 -14.49,39.54 -46.09,39.54l-29.62 0c-6.59,0 -10.52,3.3 -11.85,11.21l-6.58 38.9c-1.3,6.59 4.62,9.22 9.88,10.55 12.5,3.94 26.33,5.26 42.79,5.26 64.51,0 111.9,-11.86 128.36,-105.46l54.63 -310.48 63.19 0c11.2,0 13.83,-5.26 15.13,-12.52l7.25 -39.54c1.97,-9.24 -0.66,-13.18 -11.18,-13.18l-63.21 0 5.92 -32.3c5.94,-32.3 14.5,-39.56 46.09,-39.56l29.62 0c6.59,0 10.54,-3.29 11.85,-11.21l6.58 -39.54c1.32,-7.25 -1.32,-8.58 -9.87,-10.55 -4.6,-1.32 -27.64,-4.62 -50.02,-4.62zm358.08 268.29c0,-77.12 -41.47,-135.13 -129.02,-135.13 -100.71,0 -165.88,45.48 -187.6,168.75l-7.24 40.87c-2.63,13.84 -3.29,27.67 -3.29,39.55 0,99.53 71.09,132.48 129.68,132.48 59.23,0 88.2,-3.3 132.29,-11.2 12.51,-1.99 14.49,-6.59 16.46,-17.14l7.91 -43.5c1.31,-8.58 -3.95,-10.55 -12.51,-9.89 -28.31,2.64 -73.72,7.26 -121.77,7.26 -48.71,0 -67.14,-23.74 -67.14,-59.33 0,-9.23 1.97,-17.79 3.27,-27.04l214.61 0c9.21,0 13.81,-5.93 15.79,-16.46l5.26 -31.66c1.97,-12.52 3.3,-25.7 3.3,-37.56zm-85.57 -1.33c0,8.58 -1.32,16.48 -2.63,25.06l-139.56 0c8.55,-48.11 32.92,-83.71 85.57,-83.71 36.21,0 56.62,20.42 56.62,58.65z"/>
  </g>
 </g>
</svg>
